<svg width="48" height="48" viewBox="0 0 48 48" fill="none" xmlns="http://www.w3.org/2000/svg">
<path d="M20.9999 34.0002C20.7367 34.0017 20.4758 33.9512 20.2321 33.8517C19.9885 33.7522 19.7668 33.6055 19.5799 33.4202C19.3925 33.2342 19.2437 33.013 19.1422 32.7693C19.0406 32.5256 18.9883 32.2642 18.9883 32.0002C18.9883 31.7361 19.0406 31.4747 19.1422 31.231C19.2437 30.9873 19.3925 30.7661 19.5799 30.5802L26.1999 24.0002L19.8399 17.3802C19.4674 17.0054 19.2584 16.4985 19.2584 15.9702C19.2584 15.4418 19.4674 14.9349 19.8399 14.5602C20.0259 14.3727 20.2471 14.2239 20.4908 14.1224C20.7345 14.0208 20.9959 13.9686 21.2599 13.9686C21.524 13.9686 21.7854 14.0208 22.0291 14.1224C22.2728 14.2239 22.494 14.3727 22.6799 14.5602L30.3999 22.5602C30.7664 22.934 30.9717 23.4367 30.9717 23.9602C30.9717 24.4837 30.7664 24.9863 30.3999 25.3602L22.3999 33.3602C22.2204 33.554 22.0043 33.7104 21.764 33.8203C21.5237 33.9301 21.264 33.9912 20.9999 34.0002Z" fill="#3671E9"/>
</svg>
